<svg width="815" height="884" xmlns="http://www.w3.org/2000/svg" xmlns:xlink="http://www.w3.org/1999/xlink" xml:space="preserve" overflow="hidden"><g transform="translate(-1792 -788)"><g><path d="M243.247 874.331C230.242 866.424 224.376 855.966 224.376 840.916 224.376 825.357 228.456 816.43 240.697 805.717L249.878 797.809 249.878 728.175C249.878 653.694 248.858 645.531 236.362 623.595 227.181 607.525 109.364 402.958 81.8223 355.004-1.31292 211.654-0.802704 213.184-0.802704 163.7-1.05799 129.521 3.53255 110.9 18.5785 82.0773 30.8191 59.376 60.656 30.5528 85.3924 17.7992 122.625-1.33127 112.424-0.821301 405.948-0.821301 697.43-0.821301 686.21-1.33127 723.697 17.2888 752.769 31.5731 780.31 58.6107 794.592 87.1788 809.638 117.277 812.188 128.5 812.188 164.976 811.933 211.909 808.617 219.816 738.998 336.639 726.757 357.555 716.557 374.9 716.557 375.41 716.557 375.92 710.436 386.378 703.041 398.877 695.39 411.12 682.894 432.291 675.244 445.555 649.487 489.682 608.94 558.807 596.699 579.468 581.143 605.74 571.453 623.085 565.842 634.818 557.682 650.888 555.132 677.925 556.407 738.888L557.427 796.279 568.648 807.757C588.029 827.143 590.579 849.334 575.278 865.914 563.037 879.432 567.628 879.177 403.652 879.177 258.293 879.177 250.898 878.922 243.247 874.331ZM536.516 836.07C537.28 834.795 535.496 831.734 532.435 829.183 529.63 826.377 525.04 819.746 522.49 814.134 518.155 804.951 517.644 796.279 517.644 727.154 517.644 656.754 518.155 649.102 522.745 634.563 527.335 621.044 537.28 600.384 543.146 592.221 544.166 590.946 547.991 584.569 551.306 578.192 554.877 571.815 565.587 553.45 575.023 537.381 591.599 509.578 612.51 473.613 622.201 457.033 628.066 447.085 642.857 421.578 692.33 337.149 714.517 299.399 734.663 264.964 736.958 260.628 739.508 256.547 745.374 246.089 750.219 237.671 768.07 207.318 772.66 192.268 772.66 164.466 772.66 140.489 770.875 133.091 759.399 109.625 745.374 80.2917 720.637 58.3557 689.78 47.6427 675.244 42.5411 668.614 42.5411 405.692 42.5411 117.27 42.5411 127.725 42.2861 101.969 55.2948 88.9629 61.9266 61.4211 88.4541 54.0256 101.973 37.7047 130.796 33.6244 170.077 43.5699 200.941 46.6301 209.868 49.6904 218.541 50.9654 219.816 51.9855 221.347 56.3207 228.744 60.401 236.396 64.7363 244.048 80.0371 271.086 94.8281 296.338 109.619 321.59 126.45 350.923 132.57 361.381 148.126 388.674 154.757 400.152 181.024 445.555 201.425 480.245 241.717 550.389 251.153 566.714 254.213 572.326 259.313 581.253 262.374 586.61 265.179 591.711 269.769 599.873 272.574 604.465 275.124 609.056 279.97 620.279 283.285 629.462 289.15 645.276 289.405 648.082 289.405 724.859 289.405 768.476 288.64 806.992 287.62 810.563 286.6 814.134 282.265 821.021 278.184 825.867 274.104 830.459 271.299 835.305 271.809 836.325 273.594 839.131 534.985 838.621 536.516 836.07Z" fill="#135176" fill-rule="evenodd" fill-opacity="1" transform="matrix(1 0 0 -1 1794 1671)"/><path d="M395.333 391.786C383.359 390.003 356.61 384.907 335.465 380.831 275.597 368.857 253.943 366.564 214.966 368.347 195.859 369.366 174.969 371.149 168.6 372.678 152.55 376.755 159.684 386.946 73.3214 238.158 67.9716 228.731 61.6027 217.776 59.0552 213.445 56.7625 209.368 50.9029 199.432 46.3174 191.789 41.7319 184.145 35.8724 174.464 33.5796 170.133 31.2869 166.057 26.1917 157.394 22.3705 151.025 2.75411 117.904-0.812346 107.713-0.812346 83.5096-0.812346 65.6756 0.461363 58.0325 4.53752 49.1151 12.6898 32.0452 29.2488 14.7207 45.8081 6.56778L60.329-0.565653 329.096-0.565653 597.864-0.565653 612.384 6.56778C639.134 19.8162 657.476 47.8413 659.769 79.6882 661.552 104.656 659.005 111.28 624.613 170.133 622.32 174.464 616.461 184.145 611.875 191.789 607.29 199.432 601.43 209.368 599.137 213.445 593.533 223.126 567.802 266.692 540.543 312.806 529.079 332.424 517.106 352.551 514.304 357.392 507.68 369.366 499.273 381.086 495.961 383.379 482.205 393.315 429.98 397.646 395.333 391.786ZM478.893 280.45 479.657 258.03 312.537 258.03 145.672 258.03 145.672 280.96 145.672 303.889 312.027 303.38 478.128 302.615 478.893 280.45ZM283.24 205.801 283.24 189.241 214.456 189.241 145.672 189.241 145.672 205.801 145.672 222.361 214.456 222.361 283.24 222.361 283.24 205.801ZM531.627 205.292 531.627 189.241 420.299 189.241 308.716 189.241 308.716 205.801 308.716 222.361 420.299 221.852 531.627 221.088 531.627 205.292ZM479.402 148.477 479.402 133.191 312.537 133.191 145.672 133.191 145.672 148.477 145.672 163.763 312.537 163.763 479.402 163.763 479.402 148.477ZM389.728 91.9172 390.492 77.1402 267.955 77.1402 145.672 77.1402 145.672 92.4269 145.672 107.713 267.445 107.204 388.964 106.439 389.728 91.9172Z" fill="#135176" fill-rule="evenodd" fill-opacity="1" transform="matrix(1 0 0 -1 1870 1593)"/></g></g></svg>