<svg width="1893" height="1146" xmlns="http://www.w3.org/2000/svg" xmlns:xlink="http://www.w3.org/1999/xlink" xml:space="preserve" overflow="hidden"><g transform="translate(-1365 -678)"><g><path d="M243.247 873.338C230.242 865.439 224.376 854.994 224.376 839.961 224.376 824.42 228.456 815.502 240.697 804.801L249.878 796.903 249.878 727.347C249.878 652.951 248.858 644.798 236.362 622.887 227.181 606.835 109.364 402.5 81.8223 354.601-1.31292 211.413-0.802704 212.942-0.802704 163.514-1.05799 129.373 3.53255 110.775 18.5785 81.9841 30.8191 59.3085 60.656 30.5181 85.3924 17.779 122.625-1.32976 112.424-0.820368 405.948-0.820368 697.43-0.820368 686.21-1.32976 723.697 17.2692 752.769 31.5372 780.31 58.5441 794.592 87.0798 809.638 117.144 812.188 128.354 812.188 164.788 811.933 211.668 808.617 219.566 738.998 336.257 726.757 357.149 716.557 374.474 716.557 374.984 716.557 375.493 710.436 385.939 703.041 398.424 695.39 410.653 682.894 431.8 675.244 445.049 649.487 489.126 608.94 558.172 596.699 578.809 581.143 605.052 571.453 622.377 565.842 634.097 557.682 650.148 555.132 677.155 556.407 738.048L557.427 795.374 568.648 806.84C588.029 826.203 590.579 848.369 575.278 864.93 563.037 878.433 567.628 878.178 403.652 878.178 258.293 878.178 250.898 877.924 243.247 873.338ZM536.516 835.12C537.28 833.847 535.496 830.789 532.435 828.241 529.63 825.439 525.04 818.814 522.49 813.209 518.155 804.037 517.644 795.374 517.644 726.328 517.644 656.008 518.155 648.365 522.745 633.842 527.335 620.339 537.28 599.702 543.146 591.548 544.166 590.275 547.991 583.905 551.306 577.535 554.877 571.166 565.587 552.822 575.023 536.77 591.599 508.999 612.51 473.075 622.201 456.514 628.066 446.578 642.857 421.099 692.33 336.766 714.517 299.059 734.663 264.663 736.958 260.332 739.508 256.255 745.374 245.809 750.219 237.401 768.07 207.082 772.66 192.05 772.66 164.279 772.66 140.329 770.875 132.94 759.399 109.5 745.374 80.2005 720.637 58.2894 689.78 47.5885 675.244 42.4928 668.614 42.4928 405.692 42.4928 117.27 42.4928 127.725 42.2381 101.969 55.2319 88.9629 61.8562 61.4211 88.3537 54.0256 101.857 37.7047 130.647 33.6244 169.884 43.5699 200.713 46.6301 209.63 49.6904 218.292 50.9654 219.566 51.9855 221.095 56.3207 228.484 60.401 236.127 64.7363 243.771 80.0371 270.778 94.8281 296.001 109.619 321.224 126.45 350.525 132.57 360.971 148.126 388.232 154.757 399.698 181.024 445.049 201.425 479.699 241.717 549.764 251.153 566.07 254.213 571.676 259.313 580.593 262.374 585.943 265.179 591.039 269.769 599.192 272.574 603.778 275.124 608.364 279.97 619.574 283.285 628.747 289.15 644.543 289.405 647.346 289.405 724.035 289.405 767.603 288.64 806.075 287.62 809.642 286.6 813.209 282.265 820.088 278.184 824.929 274.104 829.515 271.299 834.356 271.809 835.375 273.594 838.178 534.985 837.668 536.516 835.12Z" fill="#F2F2F2" fill-rule="evenodd" fill-opacity="1" transform="matrix(1 0 0 -1 1367 1677)"/><path d="M395.333 391.786C383.359 390.003 356.61 384.907 335.465 380.831 275.597 368.857 253.943 366.564 214.966 368.347 195.859 369.366 174.969 371.149 168.6 372.678 152.55 376.755 159.684 386.946 73.3214 238.158 67.9716 228.731 61.6027 217.776 59.0552 213.445 56.7625 209.368 50.9029 199.432 46.3174 191.789 41.7319 184.145 35.8724 174.464 33.5796 170.133 31.2869 166.057 26.1917 157.394 22.3705 151.025 2.75411 117.904-0.812346 107.713-0.812346 83.5096-0.812346 65.6756 0.461363 58.0325 4.53752 49.1151 12.6898 32.0452 29.2488 14.7207 45.8081 6.56778L60.329-0.565653 329.096-0.565653 597.864-0.565653 612.384 6.56778C639.134 19.8162 657.476 47.8413 659.769 79.6882 661.552 104.656 659.005 111.28 624.613 170.133 622.32 174.464 616.461 184.145 611.875 191.789 607.29 199.432 601.43 209.368 599.137 213.445 593.533 223.126 567.802 266.692 540.543 312.806 529.079 332.424 517.106 352.551 514.304 357.392 507.68 369.366 499.273 381.086 495.961 383.379 482.205 393.315 429.98 397.646 395.333 391.786ZM478.893 280.45 479.657 258.03 312.537 258.03 145.672 258.03 145.672 280.96 145.672 303.889 312.027 303.38 478.128 302.615 478.893 280.45ZM283.24 205.801 283.24 189.241 214.456 189.241 145.672 189.241 145.672 205.801 145.672 222.361 214.456 222.361 283.24 222.361 283.24 205.801ZM531.627 205.292 531.627 189.241 420.299 189.241 308.716 189.241 308.716 205.801 308.716 222.361 420.299 221.852 531.627 221.088 531.627 205.292ZM479.402 148.477 479.402 133.191 312.537 133.191 145.672 133.191 145.672 148.477 145.672 163.763 312.537 163.763 479.402 163.763 479.402 148.477ZM389.728 91.9172 390.492 77.1402 267.955 77.1402 145.672 77.1402 145.672 92.4269 145.672 107.713 267.445 107.204 388.964 106.439 389.728 91.9172Z" fill="#F2F2F2" fill-rule="evenodd" fill-opacity="1" transform="matrix(1 0 0 -1 1443 1599)"/><text fill="#F2F2F2" fill-opacity="1" font-family="Smiley Sans Oblique,Smiley Sans Oblique_MSFontService,sans-serif" font-style="oblique" font-variant="normal" font-weight="400" font-stretch="normal" font-size="440" text-anchor="start" direction="ltr" writing-mode="lr-tb" unicode-bidi="normal" text-decoration="none" transform="matrix(1 0 0 1 2288.73 1241)">排版</text><text fill="#F2F2F2" fill-opacity="1" font-family="Smiley Sans Oblique,Smiley Sans Oblique_MSFontService,sans-serif" font-style="oblique" font-variant="normal" font-weight="400" font-stretch="normal" font-size="284" text-anchor="start" direction="ltr" writing-mode="lr-tb" unicode-bidi="normal" text-decoration="none" transform="matrix(1 0 0 1 2288.73 1584)">研究室</text></g></g></svg>