<svg width="1893" height="1146" xmlns="http://www.w3.org/2000/svg" xmlns:xlink="http://www.w3.org/1999/xlink" xml:space="preserve" overflow="hidden"><g transform="translate(-476 -678)"><g><path d="M242.948 873.338C229.958 865.439 224.1 854.994 224.1 839.961 224.1 824.42 228.175 815.502 240.401 804.801L249.57 796.903 249.57 727.347C249.57 652.951 248.552 644.798 236.071 622.887 226.902 606.835 109.23 402.5 81.7217 354.601-1.31131 211.413-0.801716 212.942-0.801716 163.514-1.05669 129.373 3.5282 110.775 18.5556 81.9841 30.7812 59.3085 60.5813 30.5181 85.2874 17.779 122.474-1.32976 112.286-0.820368 405.448-0.820368 696.573-0.820368 685.365-1.32976 722.807 17.2692 751.843 31.5372 779.351 58.5441 793.614 87.0798 808.642 117.144 811.188 128.354 811.188 164.788 810.934 211.668 807.623 219.566 738.089 336.257 725.863 357.149 715.675 374.474 715.675 374.984 715.675 375.493 709.562 385.939 702.176 398.424 694.535 410.653 682.054 431.8 674.413 445.049 648.688 489.126 608.191 558.172 595.965 578.809 580.428 605.052 570.75 622.377 565.146 634.097 556.996 650.148 554.449 677.155 555.722 738.048L556.741 795.374 567.948 806.84C587.305 826.203 589.852 848.369 574.57 864.93 562.344 878.433 566.929 878.178 403.156 878.178 257.976 878.178 250.589 877.924 242.948 873.338ZM535.856 835.12C536.62 833.847 534.837 830.789 531.78 828.241 528.979 825.439 524.394 818.814 521.847 813.209 517.517 804.037 517.008 795.374 517.008 726.328 517.008 656.008 517.517 648.365 522.102 633.842 526.686 620.339 536.62 599.702 542.478 591.548 543.497 590.275 547.317 583.905 550.628 577.535 554.194 571.166 564.892 552.822 574.316 536.77 590.871 508.999 611.757 473.075 621.436 456.514 627.294 446.578 642.066 421.099 691.478 336.766 713.638 299.059 733.759 264.663 736.051 260.332 738.598 256.255 744.457 245.809 749.296 237.401 767.125 207.082 771.71 192.05 771.71 164.279 771.71 140.329 769.927 132.94 758.465 109.5 744.457 80.2005 719.751 58.2894 688.932 47.5885 674.413 42.4928 667.791 42.4928 405.193 42.4928 117.125 42.4928 127.568 42.2381 101.843 55.2319 88.8535 61.8562 61.3456 88.3537 53.9592 101.857 37.6583 130.647 33.583 169.884 43.5163 200.713 46.5728 209.63 49.6292 218.292 50.9027 219.566 51.9215 221.095 56.2514 228.484 60.3267 236.127 64.6566 243.771 79.9387 270.778 94.7115 296.001 109.484 321.224 126.295 350.525 132.407 360.971 147.944 388.232 154.566 399.698 180.801 445.049 201.177 479.699 241.42 549.764 250.844 566.07 253.9 571.676 258.994 580.593 262.051 585.943 264.852 591.039 269.437 599.192 272.239 603.778 274.786 608.364 279.625 619.574 282.936 628.747 288.795 644.543 289.049 647.346 289.049 724.035 289.049 767.603 288.285 806.075 287.266 809.642 286.247 813.209 281.917 820.088 277.842 824.929 273.767 829.515 270.965 834.356 271.475 835.375 273.258 838.178 534.327 837.668 535.856 835.12Z" fill="#135176" fill-rule="evenodd" fill-opacity="1" transform="matrix(1 0 0 -1 478 1677)"/><path d="M395.333 391.786C383.359 390.003 356.61 384.907 335.465 380.831 275.597 368.857 253.943 366.564 214.966 368.347 195.859 369.366 174.969 371.149 168.6 372.678 152.55 376.755 159.684 386.946 73.3214 238.158 67.9716 228.731 61.6027 217.776 59.0552 213.445 56.7625 209.368 50.9029 199.432 46.3174 191.789 41.7319 184.145 35.8724 174.464 33.5796 170.133 31.2869 166.057 26.1917 157.394 22.3705 151.025 2.75411 117.904-0.812346 107.713-0.812346 83.5096-0.812346 65.6756 0.461363 58.0325 4.53752 49.1151 12.6898 32.0452 29.2488 14.7207 45.8081 6.56778L60.329-0.565653 329.096-0.565653 597.864-0.565653 612.384 6.56778C639.134 19.8162 657.476 47.8413 659.769 79.6882 661.552 104.656 659.005 111.28 624.613 170.133 622.32 174.464 616.461 184.145 611.875 191.789 607.29 199.432 601.43 209.368 599.137 213.445 593.533 223.126 567.802 266.692 540.543 312.806 529.079 332.424 517.106 352.551 514.304 357.392 507.68 369.366 499.273 381.086 495.961 383.379 482.205 393.315 429.98 397.646 395.333 391.786ZM478.893 280.45 479.657 258.03 312.537 258.03 145.672 258.03 145.672 280.96 145.672 303.889 312.027 303.38 478.128 302.615 478.893 280.45ZM283.24 205.801 283.24 189.241 214.456 189.241 145.672 189.241 145.672 205.801 145.672 222.361 214.456 222.361 283.24 222.361 283.24 205.801ZM531.627 205.292 531.627 189.241 420.299 189.241 308.716 189.241 308.716 205.801 308.716 222.361 420.299 221.852 531.627 221.088 531.627 205.292ZM479.402 148.477 479.402 133.191 312.537 133.191 145.672 133.191 145.672 148.477 145.672 163.763 312.537 163.763 479.402 163.763 479.402 148.477ZM389.728 91.9172 390.492 77.1402 267.955 77.1402 145.672 77.1402 145.672 92.4269 145.672 107.713 267.445 107.204 388.964 106.439 389.728 91.9172Z" fill="#135176" fill-rule="evenodd" fill-opacity="1" transform="matrix(1 0 0 -1 554 1599)"/><text fill="#135176" fill-opacity="1" font-family="Smiley Sans Oblique,Smiley Sans Oblique_MSFontService,sans-serif" font-style="oblique" font-variant="normal" font-weight="400" font-stretch="normal" font-size="440" text-anchor="start" direction="ltr" writing-mode="lr-tb" unicode-bidi="normal" text-decoration="none" transform="matrix(1 0 0 1 1399.33 1241)">排版</text><text fill="#135176" fill-opacity="1" font-family="Smiley Sans Oblique,Smiley Sans Oblique_MSFontService,sans-serif" font-style="oblique" font-variant="normal" font-weight="400" font-stretch="normal" font-size="284" text-anchor="start" direction="ltr" writing-mode="lr-tb" unicode-bidi="normal" text-decoration="none" transform="matrix(1 0 0 1 1399.33 1584)">研究室</text></g></g></svg>